# xmcd
#
# Track frame offsets: 
#        150
#        48550
#        92747
#        126012
#        175020
#        235440
#
# Disc length: 3643 seconds
#
# Revision: 0
# Processed by: cddbd v1.5.2PL0 Copyright (c) Steve Scherf et al.
# Submitted via: ExactAudioCopy v1.0b1
#
DISCID=490e3906
DTITLE=Abbey Simon - Chopin: Piano works [CD 1 of 5)
DYEAR=1974
DGENRE=Piano
TTITLE0=Scherzo, piano, no. 1, b minor     Op. 20  BI 065
TTITLE1=Scherzo, piano, no. 2, b-flat minor   Presto - Sostenuto  Op. 
TTITLE1=31  BI 111
TTITLE2=Scherzo, piano, no. 3, c-sharp minor     Op. 39  BI 125
TTITLE3=Scherzo, piano, no. 4, E Major     Op. 54  BI 148 
TTITLE4=Fantasie, piano, f minor     Op. 49  BI 137
TTITLE5=Variations, piano, B-flat Major "Je vends des scapulaires"    
TTITLE5=Op. 12  BI 080
EXTD=
EXTT0=
EXTT1=
EXTT2=
EXTT3=
EXTT4=
EXTT5=
PLAYORDER=
